<?xml version="1.0" standalone="no"?><!DOCTYPE svg PUBLIC "-//W3C//DTD SVG 1.1//EN" "http://www.w3.org/Graphics/SVG/1.1/DTD/svg11.dtd"><svg t="1588151846661" class="icon" viewBox="0 0 1024 1024" version="1.1" xmlns="http://www.w3.org/2000/svg" p-id="1251" xmlns:xlink="http://www.w3.org/1999/xlink" width="200" height="200"><defs><style type="text/css"></style></defs><path d="M828.28906269 709.41406287H357.85156259c-37.26562527-0.32812482-68.34375-29.67187527-72.23437518-68.20312556l-32.71874964-311.24999981c-2.34374963-21.77343759 4.40625037-43.54687518 18.51562492-59.83593777a71.24999991 71.24999991 0 0 1 53.90624981-25.00781232h536.50781268a71.78906223 71.78906223 0 0 1 53.08593695 26.06249982c14.06250027 16.33593768 20.78906231 38.08593732 18.51562574 59.8593749l-32.6953125 310.19531314c-3.796875 38.62499963-35.06250009 68.06250027-72.44531269 68.20312473zM325.3203125 309.26562537a10.546875 10.546875 0 0 0-8.015625 3.84374926 12.93749973 12.93749973 0 0 0-3.07031231 10.05468778l33.1171875 311.46093732a11.53125027 11.53125027 0 0 0 10.9218749 10.89843777h470.0156251a11.50781232 11.50781232 0 0 0 11.10937444-10.89843777l32.71875046-311.48437446a13.82812482 13.82812482 0 0 0-3.09375027-10.03125064 10.546875 10.546875 0 0 0-8.015625-3.84374926H325.34374963zM299.42187509 509.32812473c-15.63281213 0-28.80468732-12.11718768-30.67968768-28.21874991L231.92187509 164.30468777a11.69531268 11.69531268 0 0 0-10.9218749-10.05468777H120.99218723C103.95312482 154.25 90.125 139.90625 90.125 122.1875 90.125 104.49218713 103.95312482 90.125 120.99218723 90.125h100.00781296C257.46874973 90.40624973 288.12500027 118.48437518 293.02343787 155.98437509l37.03124982 318.07031204c1.00781241 8.4375-1.28906213 16.96875019-6.328125 23.6718751-5.0625 6.67968777-12.46874963 11.01562509-20.62499992 12.0234375l-3.67968768-0.421875z m117.28125 274.92187554c22.73437491 0 41.15624963 19.12500027 41.15624964 42.74999946 0 23.60156287-18.42187473 42.75000027-41.15624964 42.75000027s-41.15624963-19.14843741-41.15625046-42.75000027c0-23.625 18.44531268-42.77343741 41.15625046-42.77343741z m0-64.14843795c-56.81249973 0-102.89062491 47.85937537-102.89062491 106.87500027 0 59.0625 46.07812519 106.89843741 102.89062491 106.89843741 56.83593769 0 102.89062491-47.85937537 102.89062491-106.87500027 0-28.35937518-10.82812473-55.54687473-30.11718741-75.58593723a100.99218741 100.99218741 0 0 0-72.7734375-31.31250018z m349.85156232 64.125c16.64062537 0 31.640625 10.42968768 38.01562509 26.39062545a43.96875019 43.96875019 0 0 1-8.90625009 46.59374955 40.03124991 40.03124991 0 0 1-44.85937528 9.28125 42.79687537 42.79687537 0 0 1-25.40624936-39.49218759c0-23.625 18.42187473-42.77343741 41.15624964-42.77343741z m0-64.125c-56.83593769 0-102.89062491 47.85937537-102.89062491 106.87500027 0 59.0625 46.05468723 106.89843741 102.89062491 106.89843741 56.81249973 0 102.89062491-47.85937537 102.89062491-106.87500027 0-28.35937518-10.85156269-55.54687473-30.14062455-75.58593723a100.99218741 100.99218741 0 0 0-72.75000036-31.31250018z" p-id="1252"></path></svg>