<?xml version="1.0" standalone="no"?><!DOCTYPE svg PUBLIC "-//W3C//DTD SVG 1.1//EN" "http://www.w3.org/Graphics/SVG/1.1/DTD/svg11.dtd"><svg t="1588151843364" class="icon" viewBox="0 0 1024 1024" version="1.1" xmlns="http://www.w3.org/2000/svg" p-id="1109" xmlns:xlink="http://www.w3.org/1999/xlink" width="200" height="200"><defs><style type="text/css"></style></defs><path d="M173.82252313 261.05885937l-43.63496719 1e-8c-18.07412062 0-32.72598562-14.651865-32.72598563-32.72598563s14.651865-32.72598562 32.72598563-32.72598562l43.63496717 0c18.07412062 0 32.72598562 14.651865 32.72598564 32.72598562S191.89664469 261.05885937 173.82252313 261.05885937z" p-id="1110"></path><path d="M893.80188406 261.05885937L304.73606469 261.05885937c-18.07412062 0-32.72598562-14.651865-32.72598563-32.72598562s14.651865-32.72598562 32.72598563-32.72598562l589.06677937 0c18.07412062 0 32.72598562 14.651865 32.72598563 32.72598562S911.87696563 261.05885937 893.80188406 261.05885937z" p-id="1111"></path><path d="M173.82252313 544.72694562l-43.63496719 0c-18.07412062 0-32.72598562-14.652825-32.72598563-32.72598562 0-18.07412062 14.651865-32.72598562 32.72598563-32.72598562l43.63496717 0c18.07412062 0 32.72598562 14.651865 32.72598564 32.72598562C206.54754875 530.07412062 191.89664469 544.72694562 173.82252313 544.72694562z" p-id="1112"></path><path d="M893.80188406 544.72694562L304.73606469 544.72694562c-18.07412062 0-32.72598562-14.652825-32.72598563-32.72598562s14.651865-32.72598562 32.72598563-32.72598562l589.06677937 0c18.07412062 0 32.72598562 14.651865 32.72598563 32.72598562S911.87696563 544.72694562 893.80188406 544.72694562z" p-id="1113"></path><path d="M173.82252313 828.35087281l-43.63496719 0c-18.07412062 0-32.72598562-14.651865-32.72598563-32.72598562s14.651865-32.72598562 32.72598563-32.72598563l43.63496717 0c18.07412062 0 32.72598562 14.651865 32.72598564 32.72598563S191.89664469 828.35087281 173.82252313 828.35087281z" p-id="1114"></path><path d="M893.80188406 828.35087281L304.73606469 828.35087281c-18.07412062 0-32.72598562-14.651865-32.72598563-32.72598562s14.651865-32.72598562 32.72598563-32.72598563l589.06677937 0c18.07412062 0 32.72598562 14.651865 32.72598563 32.72598563S911.87696563 828.35087281 893.80188406 828.35087281z" p-id="1115"></path></svg>