<?xml version="1.0" standalone="no"?><!DOCTYPE svg PUBLIC "-//W3C//DTD SVG 1.1//EN" "http://www.w3.org/Graphics/SVG/1.1/DTD/svg11.dtd"><svg t="1588151837461" class="icon" viewBox="0 0 1115 1024" version="1.1" xmlns="http://www.w3.org/2000/svg" p-id="971" xmlns:xlink="http://www.w3.org/1999/xlink" width="217.7734375" height="200"><defs><style type="text/css"></style></defs><path d="M262.30119519 933.875a98.8955115 98.8955115 0 0 1-98.67277468-98.8955115V492.40899924l-38.53361097 38.53361178a22.27376404 22.27376404 0 0 1-14.47794662 6.01391629 20.49186292 20.49186292 0 0 1-20.49186292-20.49186291 20.26912527 20.26912527 0 0 1 6.01391629-14.25520899l383.10873899-383.10873898a98.8955115 98.8955115 0 0 1 139.87923733 0L1003.3493198 502.20945541a20.04638764 20.04638764 0 0 1 5.79117864 14.25520899 19.60091235 19.60091235 0 0 1-6.01391628 14.47794662 20.26912527 20.26912527 0 0 1-14.47794663 6.01391629 19.60091235 19.60091235 0 0 1-14.47794662-6.01391629l-38.53361179-38.53361178v342.57048926a98.8955115 98.8955115 0 0 1-98.89551151 98.8955115zM549.18727353 130.90581137a57.46631122 57.46631122 0 0 0-40.98372501 16.92806067l-302.92318927 302.92318927v384.22242719a57.9117865 57.9117865 0 0 0 57.9117865 58.13452331h572.65846931a58.13452414 58.13452414 0 0 0 57.91178649-58.13452331V452.76170008L590.17099936 147.83387204a57.9117865 57.9117865 0 0 0-40.98372583-16.92806067z" p-id="972"></path><path d="M549.18727353 728.06542193a255.70280951 255.70280951 0 0 1-225.41049042-143.88851486 20.49186292 20.49186292 0 0 1 18.04174887-30.06958145 20.49186292 20.49186292 0 0 1 18.04174887 10.91414438 215.61003425 215.61003425 0 0 0 189.32699268 122.28296374 215.3872966 215.3872966 0 0 0 189.10425586-122.28296374 20.26912527 20.26912527 0 0 1 27.6194674-8.46403033 19.37817471 19.37817471 0 0 1 10.02319382 12.02783258 20.9373382 20.9373382 0 0 1-1.33642584 15.59163482 256.37102243 256.37102243 0 0 1-225.41049124 143.88851486z" p-id="973"></path></svg>