<?xml version="1.0" standalone="no"?><!DOCTYPE svg PUBLIC "-//W3C//DTD SVG 1.1//EN" "http://www.w3.org/Graphics/SVG/1.1/DTD/svg11.dtd"><svg t="1603162496836" class="icon" viewBox="0 0 1024 1024" version="1.1" xmlns="http://www.w3.org/2000/svg" p-id="3077" xmlns:xlink="http://www.w3.org/1999/xlink" width="200" height="200"><defs><style type="text/css"></style></defs><path d="M455.75 441.6875h182.8125v56.25H455.75zM455.75 582.3125h337.5v56.25H455.75zM230.75 722.9375h562.5v56.25H230.75z" fill="" p-id="3078"></path><path d="M118.25 118.25v787.5h787.5V118.25z m731.25 731.25H174.5V174.5h675z" fill="" p-id="3079"></path><path d="M343.25 230.75h-28.125v56.25l28.125 56.25v-112.5zM343.25 357.3125l-70.3125-126.5625h-42.1875l70.3125 126.5625h42.1875z" fill="" p-id="3080"></path><path d="M272.9375 301.0625l-42.1875-56.25v112.5h42.1875v-56.25zM441.6875 272.9375h42.1875v-42.1875h-70.3125v28.125h28.125v14.0625zM441.6875 343.25h-28.125v14.0625h70.3125v-28.125h-42.1875v14.0625z" fill="" p-id="3081"></path><path d="M413.5625 315.125h42.1875v-28.125h-42.1875v-56.25h-42.1875v126.5625h42.1875v-42.1875zM666.6875 230.75h-28.125l-14.0625 56.25 14.0625 70.3125 28.125-126.5625zM624.5 357.3125l-28.125-126.5625h-42.1875l42.1875 126.5625h28.125zM554.1875 357.3125l14.0625-42.1875-14.0625-70.3125-14.0625 56.25-14.0625-70.3125h-42.1875l42.1875 126.5625h28.125zM751.0625 272.9375h42.1875v-14.0625l-28.125-28.125h-42.1875v28.125h28.125v14.0625z" fill="" p-id="3082"></path><path d="M751.0625 315.125v42.1875h14.0625l28.125-14.0625v-42.1875l-28.125-28.125h-56.25v-42.1875h-14.0625l-14.0625 28.125v28.125l14.0625 28.125h56.25z" fill="" p-id="3083"></path><path d="M751.0625 357.3125v-14.0625h-42.1875v-14.0625h-28.125v14.0625l14.0625 14.0625h56.25zM413.5625 441.6875H230.75v196.875h182.8125z m-56.25 140.625h-70.3125v-84.375h70.3125z" fill="" p-id="3084"></path></svg>